<?xml version="1.0" encoding="UTF-8"?> <svg xmlns="http://www.w3.org/2000/svg" id="Capa_2" data-name="Capa 2" viewBox="0 0 416.4 75.85"><defs><style> .cls-1 { fill: #fff; } </style></defs><g id="Capa_2-2" data-name="Capa 2"><path class="cls-1" d="m83.21,14.13c-.1-2.35-1.86-4.38-4.17-4.8-2.36-.42-4.14,1.02-5.5,2.66-1.95,2.36-13.75,17.89-26.58,26.86-2,1.4-4.4,1.77-7.18-.47-8.31-6.69-10.67-10.45-14.15-15.84-1.08-1.68-2.76-3.07-4.88-3.07-.65,0-2.95,0-4.83,3.25-4.11,7.12-5.52,8-12.63,12.6-.85.55-2.78,1.73-3.18,3.94-.54,2.99.85,4.68,2.55,5.52,2.38,1.17,5.39.47,6.73-1.82,1.48-2.52,1.45-2.87,2.32-4.1,1.92-2.71,3.87-4.61,5.15-5.58,3.62-2.73,5.6-1.28,7.63.09,3.6,2.43,10.56,9.83,13.57,14.76.46.76,1.77,2.57,1.88,2.75.91,1.42,2.51,2.36,4.32,2.36,1.23,0,2.62-.53,3.42-1.34,1.52-1.55,2.33-2.72,2.84-3.35,1.2-1.5,2.98-3.77,6.08-7.37,5.44-6.32,13.37-14.27,23.1-21.63.36-.27.72-.54,1.09-.8.79-.56,2.52-2.07,2.41-4.61"></path><path class="cls-1" d="m7.37,26.49v-15.66c0-2.69,1.82-5.41,5.12-5.41h41.34c2.21,0,5.11,1.79,5.11,5.1v9.36l4.9-5.79v-3.57c0-6.09-4.91-9.95-10.02-9.95H12.48C6.51.56,2.46,5.4,2.46,10.83v19.2s.91-.41,2.71-1.69c1.58-1.13,2.2-1.84,2.2-1.84"></path><path class="cls-1" d="m58.94,50.8c0,3.36-1.94,5.67-5.12,5.67H12.48c-3.34,0-5.12-2.96-5.12-5.16v-.86s-1.33-.08-2.59-.27c-1.22-.18-2.32-.56-2.32-.56v1.69c0,5.44,4.58,10.02,9.32,10.02h41.86c5.95,0,10.2-4.1,10.2-10.89v-7.42l-4.9,5.37v2.41h.01Z"></path><path class="cls-1" d="m125.27,46.99h-20.38l-5.38,13.2h-8.84L115.42,1.7h.54l24.76,58.49h-10.3l-5.15-13.2h0Zm-3-7.72l-7-17.75-7.23,17.75h14.23Z"></path><path class="cls-1" d="m177.29,28.9c2.02,1.83,3.06,4.18,3.11,7.06v24.23h-8.61v-21.14c-.1-1.7-.6-3.04-1.5-4.01-.9-.98-2.24-1.49-4.04-1.54-2.67,0-4.86,1.14-6.58,3.43s-2.58,5.21-2.58,8.76v14.51h-8.61V27.55h7.77l.62,5.79c1.18-2.26,2.88-4.02,5.11-5.29,2.23-1.26,4.81-1.89,7.73-1.89s5.55.91,7.57,2.74"></path><path class="cls-1" d="m226.31,27.55v32.64h-8.61v-4.71c-1.18,1.39-2.77,2.66-4.77,3.82s-4.33,1.74-7,1.74c-3.13,0-5.92-.66-8.38-1.97s-4.41-3.25-5.84-5.83c-1.43-2.57-2.15-5.68-2.15-9.34s.74-6.68,2.23-9.38c1.49-2.7,3.47-4.78,5.96-6.25,2.49-1.46,5.22-2.2,8.19-2.2,5.28,0,9.23,1.96,11.84,5.86l.62-4.4h7.92v.02Zm-12.04,24.58c1.61-1.21,2.76-2.92,3.42-5.13v-7.1c-.61-2.01-1.81-3.63-3.58-4.86s-3.81-1.85-6.11-1.85c-2.72,0-5.02.96-6.92,2.89-1.9,1.93-2.85,4.39-2.85,7.37,0,1.96.46,3.73,1.38,5.33.92,1.6,2.15,2.85,3.69,3.78s3.2,1.39,5,1.39c2.36,0,4.35-.6,5.96-1.81"></path><rect class="cls-1" x="238.23" width="8.61" height="60.19"></rect><polygon class="cls-1" points="290.82 27.55 269.83 75.85 261.37 75.85 268.99 58.8 253.91 27.55 263.6 27.55 273.29 49.15 282.98 27.55 290.82 27.55"></polygon><polygon class="cls-1" points="309.67 13.2 309.67 27.55 318.12 27.55 318.12 34.34 309.67 34.34 309.67 60.19 301.05 60.19 301.05 34.34 295.44 34.34 295.44 27.55 301.05 27.55 301.05 13.2 309.67 13.2"></polygon><path class="cls-1" d="m327.73,12.62c1.03-.9,2.18-1.35,3.46-1.35s2.35.45,3.35,1.35c1,.9,1.5,1.99,1.5,3.28s-.5,2.37-1.5,3.24c-1,.88-2.11,1.31-3.35,1.31s-2.44-.44-3.46-1.31c-1.03-.87-1.54-1.95-1.54-3.24s.51-2.38,1.54-3.28m7.46,47.57h-8.61V27.55h8.61v32.64Z"></path><path class="cls-1" d="m368.68,60c-2.08.69-4.17,1.04-6.27,1.04-3.59,0-6.75-.7-9.5-2.08-2.74-1.39-4.86-3.38-6.35-5.98-1.49-2.6-2.23-5.64-2.23-9.14s.79-6.47,2.39-9.07c1.59-2.6,3.7-4.59,6.34-5.98,2.64-1.39,5.47-2.08,8.5-2.08,5.12,0,9.35,1.39,12.69,4.17l-4.31,5.63c-.97-.77-2.11-1.43-3.42-1.97-1.31-.54-2.7-.81-4.19-.81-2.61,0-4.83.96-6.65,2.89s-2.73,4.34-2.73,7.22.96,5.29,2.88,7.21c1.92,1.93,4.37,2.89,7.34,2.89,2.56,0,4.72-.72,6.46-2.16l4.31,5.4c-1.44,1.18-3.19,2.12-5.27,2.82"></path><path class="cls-1" d="m382.45,34.65c1.56-2.67,3.73-4.77,6.5-6.29s5.92-2.28,9.46-2.28,6.68.76,9.42,2.28c2.74,1.52,4.86,3.6,6.34,6.25,1.48,2.65,2.23,5.62,2.23,8.91s-.74,6.26-2.23,8.91c-1.49,2.65-3.6,4.74-6.34,6.29-2.74,1.54-5.91,2.32-9.5,2.32s-6.61-.71-9.38-2.12c-2.77-1.41-4.93-3.44-6.5-6.1-1.57-2.65-2.35-5.75-2.35-9.3,0-3.24.78-6.2,2.35-8.87m9.04,16.32c1.79,1.98,4.02,2.97,6.69,2.97s5.04-.98,6.8-2.93c1.77-1.95,2.65-4.42,2.65-7.41s-.88-5.46-2.65-7.45c-1.77-1.98-4.04-2.97-6.8-2.97s-4.9,1.02-6.69,3.05-2.69,4.49-2.69,7.37.9,5.39,2.69,7.37"></path></g></svg> 