<?xml version="1.0" encoding="UTF-8"?> <svg xmlns="http://www.w3.org/2000/svg" id="Capa_2" data-name="Capa 2" viewBox="0 0 480.23 106.44"><defs><style> .cls-1 { fill: #fff; } </style></defs><g id="Capa_1-2" data-name="Capa 1"><path class="cls-1" d="m137.58,22.57c-.16-3.89-3.07-7.25-6.89-7.93-3.9-.7-6.84,1.68-9.1,4.4-3.23,3.91-22.74,29.58-43.95,44.41-3.31,2.31-7.28,2.93-11.88-.78-13.74-11.07-17.65-17.28-23.39-26.19-1.78-2.77-4.57-5.08-8.07-5.08-1.07,0-4.87,0-7.98,5.38-6.79,11.78-9.13,13.23-20.88,20.84-1.41.91-4.6,2.86-5.26,6.51-.89,4.95,1.41,7.74,4.21,9.12,3.93,1.93,8.92.77,11.13-3.01,2.45-4.17,2.39-4.74,3.84-6.78,3.17-4.48,6.4-7.62,8.52-9.23,5.99-4.51,9.26-2.11,12.62.15,5.96,4.02,17.46,16.26,22.44,24.41.76,1.25,2.92,4.25,3.11,4.54,1.51,2.35,4.15,3.91,7.15,3.91,2.03,0,4.34-.88,5.66-2.22,2.52-2.56,3.85-4.5,4.69-5.54,1.98-2.48,4.92-6.23,10.05-12.19,9-10.45,22.1-23.59,38.19-35.76.59-.45,1.19-.89,1.8-1.32,1.31-.92,4.17-3.42,3.99-7.63"></path><path class="cls-1" d="m12.17,43.01v-25.9c0-4.44,3.01-8.95,8.46-8.95h68.36c3.65,0,8.45,2.96,8.45,8.43v15.48l8.11-9.57v-5.91C105.55,6.52,97.43.13,88.98.13H20.62C10.75.13,4.06,8.14,4.06,17.11v31.75s1.51-.68,4.48-2.8c2.62-1.87,3.63-3.05,3.63-3.05"></path><path class="cls-1" d="m97.44,83.21c0,5.55-3.2,9.38-8.46,9.38H20.62c-5.52,0-8.46-4.89-8.46-8.54v-1.42s-2.2-.14-4.28-.45c-2.02-.3-3.84-.93-3.84-.93v2.8c0,8.99,7.57,16.57,15.41,16.57h69.22c9.84,0,16.86-6.78,16.86-18.01v-12.27l-8.11,8.88v3.98Z"></path><rect class="cls-1" x="154.18" y="80.56" width="3.23" height="20.06"></rect><path class="cls-1" d="m175.36,89.45c.73.65,1.1,1.49,1.12,2.52v8.65h-3.09v-7.55c-.04-.61-.22-1.08-.54-1.43-.32-.35-.8-.53-1.45-.55-.96,0-1.74.41-2.36,1.23-.61.82-.92,1.86-.92,3.13v5.18h-3.09v-11.66h2.78l.22,2.07c.42-.81,1.03-1.44,1.83-1.89.8-.45,1.72-.67,2.77-.67s1.99.33,2.71.98"></path><polygon class="cls-1" points="187.69 83.84 187.69 88.97 190.73 88.97 190.73 91.39 187.69 91.39 187.69 100.63 184.61 100.63 184.61 91.39 182.6 91.39 182.6 88.97 184.61 88.97 184.61 83.84 187.69 83.84"></polygon><path class="cls-1" d="m204.76,97.38l1.41,2.29c-.62.39-1.3.69-2.01.92-.72.23-1.41.34-2.07.34-1.34,0-2.5-.27-3.49-.8-.98-.53-1.74-1.27-2.26-2.21-.52-.94-.78-2.01-.78-3.22,0-1.14.29-2.19.88-3.14.59-.96,1.39-1.71,2.4-2.27,1.01-.56,2.11-.84,3.31-.84,1.58,0,2.89.46,3.94,1.39,1.05.93,1.74,2.24,2.1,3.93l-8.98,3.03c.31.48.72.85,1.24,1.1.51.26,1.08.39,1.71.39.86,0,1.74-.3,2.62-.91m-5.25-5.48c-.62.68-.92,1.56-.92,2.65,0,.2.01.36.03.47l6.12-2.18c-.24-.57-.59-1.04-1.05-1.41-.46-.37-1.06-.55-1.79-.55-.97,0-1.77.34-2.38,1.02"></path><rect class="cls-1" x="213.96" y="79.13" width="3.09" height="21.5"></rect><path class="cls-1" d="m224.46,83.64c.37-.32.78-.48,1.24-.48s.84.16,1.2.48c.36.32.54.71.54,1.17s-.18.85-.54,1.16c-.36.31-.76.47-1.2.47s-.87-.16-1.24-.47c-.37-.31-.55-.7-.55-1.16s.18-.85.55-1.17m2.67,16.99h-3.09v-11.66h3.09v11.66Z"></path><path class="cls-1" d="m246.76,88.97v11.71c0,1.08-.29,2.06-.87,2.94-.58.87-1.39,1.56-2.43,2.07-1.04.51-2.21.76-3.51.76s-2.33-.2-3.17-.59c-.85-.4-1.7-.97-2.56-1.72l1.82-2.12c.59.55,1.18.98,1.79,1.28.61.3,1.29.45,2.07.45,1.14,0,2.05-.28,2.73-.84.68-.56,1.03-1.32,1.05-2.27v-1.96c-.4.68-1.01,1.23-1.81,1.64-.8.41-1.73.62-2.8.62s-2.05-.27-2.95-.81c-.9-.54-1.62-1.29-2.15-2.23-.53-.95-.8-2-.8-3.16s.28-2.25.84-3.21c.56-.96,1.3-1.72,2.23-2.26.93-.54,1.91-.81,2.96-.81.97,0,1.86.17,2.66.51.8.34,1.4.79,1.81,1.34l.25-1.32h2.84Zm-4.45,8.76c.65-.44,1.11-1.04,1.36-1.79v-2.54c-.26-.74-.72-1.32-1.38-1.76-.66-.44-1.43-.66-2.32-.66-1.05,0-1.92.35-2.63,1.03-.71.69-1.06,1.57-1.06,2.63,0,.7.17,1.33.5,1.9.33.57.78,1.02,1.34,1.35.56.33,1.18.5,1.86.5.9,0,1.68-.22,2.33-.66"></path><path class="cls-1" d="m262,97.38l1.41,2.29c-.62.39-1.3.69-2.01.92-.72.23-1.41.34-2.07.34-1.34,0-2.5-.27-3.49-.8-.98-.53-1.74-1.27-2.26-2.21-.52-.94-.78-2.01-.78-3.22,0-1.14.29-2.19.88-3.14.59-.96,1.39-1.71,2.4-2.27,1.01-.56,2.11-.84,3.31-.84,1.58,0,2.89.46,3.94,1.39,1.05.93,1.74,2.24,2.1,3.93l-8.98,3.03c.31.48.72.85,1.24,1.1.51.26,1.08.39,1.71.39.86,0,1.74-.3,2.62-.91m-5.25-5.48c-.62.68-.92,1.56-.92,2.65,0,.2.01.36.03.47l6.12-2.18c-.24-.57-.59-1.04-1.05-1.41-.46-.37-1.06-.55-1.79-.55-.97,0-1.77.34-2.38,1.02"></path><path class="cls-1" d="m281.53,89.45c.73.65,1.1,1.49,1.12,2.52v8.65h-3.09v-7.55c-.04-.61-.22-1.08-.54-1.43-.32-.35-.8-.53-1.45-.55-.96,0-1.74.41-2.36,1.23-.61.82-.92,1.86-.92,3.13v5.18h-3.09v-11.66h2.78l.22,2.07c.42-.81,1.03-1.44,1.83-1.89.8-.45,1.72-.67,2.77-.67s1.99.33,2.71.98"></path><path class="cls-1" d="m297.4,100.56c-.74.25-1.49.37-2.25.37-1.29,0-2.42-.25-3.4-.74-.98-.5-1.74-1.21-2.27-2.14-.53-.93-.8-2.02-.8-3.27s.29-2.31.85-3.24c.57-.93,1.33-1.64,2.27-2.14.95-.5,1.96-.74,3.05-.74,1.84,0,3.35.5,4.55,1.49l-1.54,2.01c-.35-.27-.76-.51-1.23-.7-.47-.19-.97-.29-1.5-.29-.94,0-1.73.35-2.38,1.03-.65.69-.98,1.55-.98,2.58s.34,1.89,1.03,2.58c.69.69,1.57,1.03,2.63,1.03.92,0,1.69-.26,2.32-.77l1.54,1.93c-.52.42-1.14.76-1.89,1.01"></path><path class="cls-1" d="m305.63,83.64c.37-.32.78-.48,1.24-.48s.84.16,1.2.48c.36.32.54.71.54,1.17s-.18.85-.54,1.16c-.36.31-.76.47-1.2.47s-.87-.16-1.24-.47c-.37-.31-.55-.7-.55-1.16s.18-.85.55-1.17m2.67,16.99h-3.09v-11.66h3.09v11.66Z"></path><path class="cls-1" d="m327.51,88.97v11.66h-3.09v-1.68c-.42.5-.99.95-1.71,1.36-.72.41-1.55.62-2.51.62-1.12,0-2.12-.24-3-.7-.88-.47-1.58-1.16-2.1-2.08-.52-.92-.77-2.03-.77-3.33s.27-2.38.8-3.35c.53-.96,1.24-1.71,2.14-2.23.89-.52,1.87-.79,2.93-.79,1.89,0,3.31.7,4.24,2.09l.22-1.57h2.84Zm-4.31,8.78c.58-.43.99-1.04,1.23-1.83v-2.54c-.22-.72-.65-1.3-1.28-1.74s-1.37-.66-2.19-.66c-.98,0-1.8.34-2.48,1.03-.68.69-1.02,1.57-1.02,2.63,0,.7.17,1.33.5,1.9.33.57.77,1.02,1.32,1.35.55.33,1.15.5,1.79.5.84,0,1.56-.22,2.14-.65"></path><polygon class="cls-1" points="360.06 80.56 360.06 83.65 349.97 83.65 349.97 89 358.96 89 358.96 92.08 349.97 92.08 349.97 97.54 360.45 97.54 360.45 100.63 346.75 100.63 346.75 80.56 360.06 80.56"></polygon><path class="cls-1" d="m365.63,104.35c1.12-.92,1.68-2.2,1.68-3.83v-11.55h3.09v11.71c0,1.38-.23,2.51-.7,3.4-.47.89-1.23,1.61-2.27,2.16l-1.79-1.9Zm2.04-20.71c.37-.32.78-.48,1.24-.48s.84.16,1.2.48c.36.32.54.71.54,1.17s-.18.85-.54,1.16c-.36.31-.76.47-1.2.47s-.87-.16-1.24-.47c-.37-.31-.55-.7-.55-1.16s.18-.85.55-1.17"></path><path class="cls-1" d="m385.55,97.38l1.41,2.29c-.62.39-1.29.69-2.01.92-.72.23-1.41.34-2.07.34-1.34,0-2.5-.27-3.48-.8-.98-.53-1.74-1.27-2.26-2.21-.52-.94-.79-2.01-.79-3.22,0-1.14.29-2.19.88-3.14.59-.96,1.39-1.71,2.4-2.27,1.01-.56,2.11-.84,3.31-.84,1.58,0,2.9.46,3.94,1.39,1.05.93,1.74,2.24,2.09,3.93l-8.98,3.03c.31.48.73.85,1.24,1.1.51.26,1.08.39,1.71.39.86,0,1.74-.3,2.62-.91m-5.25-5.48c-.62.68-.92,1.56-.92,2.65,0,.2,0,.36.03.47l6.12-2.18c-.24-.57-.59-1.04-1.05-1.41-.46-.37-1.06-.55-1.79-.55-.97,0-1.77.34-2.38,1.02"></path><path class="cls-1" d="m402.52,100.56c-.74.25-1.49.37-2.25.37-1.29,0-2.42-.25-3.4-.74-.98-.5-1.74-1.21-2.27-2.14-.53-.93-.8-2.02-.8-3.27s.28-2.31.85-3.24c.57-.93,1.33-1.64,2.27-2.14.95-.5,1.96-.74,3.04-.74,1.84,0,3.35.5,4.55,1.49l-1.54,2.01c-.35-.27-.76-.51-1.23-.7-.47-.19-.97-.29-1.5-.29-.94,0-1.73.35-2.38,1.03-.65.69-.98,1.55-.98,2.58s.34,1.89,1.03,2.58c.69.69,1.57,1.03,2.63,1.03.92,0,1.69-.26,2.31-.77l1.54,1.93c-.52.42-1.14.76-1.89,1.01"></path><path class="cls-1" d="m421.55,88.97v11.66h-2.78l-.19-2.1c-.41.79-1,1.42-1.79,1.89-.79.47-1.69.7-2.7.7-1.07,0-1.95-.33-2.66-.98-.71-.65-1.07-1.49-1.09-2.52v-8.65h3.09v7.55c.05,1.29.69,1.94,1.9,1.96.9,0,1.65-.41,2.25-1.24.6-.83.9-1.86.9-3.11v-5.15h3.09Z"></path><polygon class="cls-1" points="432.79 83.84 432.79 88.97 435.83 88.97 435.83 91.39 432.79 91.39 432.79 100.63 429.71 100.63 429.71 91.39 427.7 91.39 427.7 88.97 429.71 88.97 429.71 83.84 432.79 83.84"></polygon><path class="cls-1" d="m442.03,83.64c.37-.32.78-.48,1.24-.48s.84.16,1.2.48c.36.32.54.71.54,1.17s-.18.85-.54,1.16c-.36.31-.76.47-1.2.47s-.87-.16-1.24-.47c-.37-.31-.55-.7-.55-1.16s.18-.85.55-1.17m2.67,16.99h-3.09v-11.66h3.09v11.66Z"></path><polygon class="cls-1" points="463.22 88.97 456.83 100.93 456.69 100.93 449.99 88.97 453.66 88.97 456.86 95.64 459.78 88.97 463.22 88.97"></polygon><path class="cls-1" d="m480.23,88.97v11.66h-3.09v-1.68c-.42.5-.99.95-1.71,1.36-.72.41-1.55.62-2.51.62-1.12,0-2.12-.24-3.01-.7-.88-.47-1.58-1.16-2.09-2.08-.52-.92-.77-2.03-.77-3.33s.27-2.38.8-3.35c.53-.96,1.24-1.71,2.13-2.23.89-.52,1.87-.79,2.94-.79,1.89,0,3.31.7,4.24,2.09l.22-1.57h2.84Zm-4.31,8.78c.58-.43.99-1.04,1.23-1.83v-2.54c-.22-.72-.65-1.3-1.28-1.74-.63-.44-1.36-.66-2.19-.66-.98,0-1.8.34-2.48,1.03-.68.69-1.02,1.57-1.02,2.63,0,.7.16,1.33.5,1.9.33.57.77,1.02,1.32,1.35.55.33,1.15.5,1.79.5.84,0,1.56-.22,2.14-.65"></path><path class="cls-1" d="m189.1,46.99h-20.38l-5.38,13.2h-8.84L179.25,1.7h.54l24.76,58.49h-10.3l-5.15-13.2Zm-3-7.72l-7-17.75-7.23,17.75h14.23Z"></path><path class="cls-1" d="m241.12,28.9c2.02,1.83,3.06,4.18,3.11,7.06v24.23h-8.61v-21.14c-.1-1.7-.6-3.04-1.5-4.01-.9-.98-2.24-1.49-4.04-1.54-2.67,0-4.86,1.14-6.58,3.43-1.72,2.29-2.58,5.21-2.58,8.76v14.51h-8.61V27.55h7.77l.62,5.79c1.18-2.26,2.88-4.02,5.11-5.29,2.23-1.26,4.81-1.89,7.73-1.89s5.55.91,7.57,2.74"></path><path class="cls-1" d="m290.14,27.55v32.64h-8.61v-4.71c-1.18,1.39-2.77,2.66-4.77,3.82-2,1.16-4.33,1.74-7,1.74-3.13,0-5.92-.66-8.38-1.97-2.46-1.31-4.41-3.25-5.84-5.83-1.43-2.57-2.15-5.68-2.15-9.34s.74-6.68,2.23-9.38c1.49-2.7,3.47-4.78,5.96-6.25,2.49-1.46,5.22-2.2,8.19-2.2,5.28,0,9.23,1.96,11.84,5.86l.62-4.4h7.92Zm-12.04,24.58c1.61-1.21,2.76-2.92,3.42-5.13v-7.1c-.61-2.01-1.81-3.63-3.58-4.86-1.77-1.23-3.81-1.85-6.11-1.85-2.72,0-5.02.96-6.92,2.89-1.9,1.93-2.85,4.39-2.85,7.37,0,1.96.46,3.73,1.38,5.33.92,1.6,2.15,2.85,3.69,3.78,1.54.93,3.2,1.39,5,1.39,2.36,0,4.35-.6,5.96-1.81"></path><rect class="cls-1" x="302.06" width="8.61" height="60.19"></rect><polygon class="cls-1" points="354.65 27.55 333.66 75.85 325.2 75.85 332.82 58.8 317.74 27.55 327.43 27.55 337.12 49.15 346.81 27.55 354.65 27.55"></polygon><polygon class="cls-1" points="373.5 13.2 373.5 27.55 381.95 27.55 381.95 34.34 373.5 34.34 373.5 60.19 364.88 60.19 364.88 34.34 359.27 34.34 359.27 27.55 364.88 27.55 364.88 13.2 373.5 13.2"></polygon><path class="cls-1" d="m391.56,12.62c1.03-.9,2.18-1.35,3.46-1.35s2.35.45,3.35,1.35c1,.9,1.5,1.99,1.5,3.28s-.5,2.37-1.5,3.24c-1,.88-2.11,1.31-3.35,1.31s-2.44-.44-3.46-1.31c-1.03-.87-1.54-1.95-1.54-3.24s.51-2.38,1.54-3.28m7.46,47.57h-8.61V27.55h8.61v32.64Z"></path><path class="cls-1" d="m432.51,60c-2.08.69-4.17,1.04-6.27,1.04-3.59,0-6.75-.7-9.5-2.08-2.74-1.39-4.86-3.38-6.35-5.98-1.49-2.6-2.23-5.64-2.23-9.14s.79-6.47,2.39-9.07c1.59-2.6,3.7-4.59,6.34-5.98,2.64-1.39,5.47-2.08,8.5-2.08,5.12,0,9.35,1.39,12.69,4.17l-4.31,5.63c-.97-.77-2.11-1.43-3.42-1.97-1.31-.54-2.7-.81-4.19-.81-2.61,0-4.83.96-6.65,2.89-1.82,1.93-2.73,4.34-2.73,7.22s.96,5.29,2.88,7.21c1.92,1.93,4.37,2.89,7.34,2.89,2.56,0,4.72-.72,6.46-2.16l4.31,5.4c-1.44,1.18-3.19,2.12-5.27,2.82"></path><path class="cls-1" d="m446.28,34.65c1.56-2.67,3.73-4.77,6.5-6.29,2.77-1.52,5.92-2.28,9.46-2.28s6.68.76,9.42,2.28c2.74,1.52,4.86,3.6,6.34,6.25,1.48,2.65,2.23,5.62,2.23,8.91s-.74,6.26-2.23,8.91c-1.49,2.65-3.6,4.74-6.34,6.29-2.74,1.54-5.91,2.32-9.5,2.32s-6.61-.71-9.38-2.12c-2.77-1.41-4.93-3.44-6.5-6.1-1.57-2.65-2.35-5.75-2.35-9.3,0-3.24.78-6.2,2.35-8.87m9.04,16.32c1.79,1.98,4.02,2.97,6.69,2.97s5.04-.98,6.8-2.93c1.77-1.95,2.65-4.42,2.65-7.41s-.88-5.46-2.65-7.45c-1.77-1.98-4.04-2.97-6.8-2.97s-4.9,1.02-6.69,3.05c-1.79,2.03-2.69,4.49-2.69,7.37s.9,5.39,2.69,7.37"></path></g></svg> 