<?xml version="1.0" encoding="UTF-8"?> <svg xmlns="http://www.w3.org/2000/svg" id="Capa_2" data-name="Capa 2" viewBox="0 0 787.21 306.54"><defs><style> .cls-1 { fill: #66b36d; } .cls-2 { fill: #339873; } </style></defs><g id="Capa_1-2" data-name="Capa 1"><g><g><path class="cls-1" d="m65.46,241.02c-7.33,19.77-12.78,40.07-16.83,60.75-.31,1.59-.72,3.07,1.49,3.51-3.49,2.13-3.35-.6-3.61-2.72-2.8-23.32-8.04-46.08-15.47-68.35-7.28-21.83-16.71-42.71-27.88-62.81-.95-1.71-2.11-3.3-3.18-4.94.28-.36.63-.6,1.07-.72,1.76-.16,2.86,1,4.02,2.02,17.48,15.16,32.56,32.53,46.35,51.04,5.24,7.03,10.47,14.12,14.01,22.23Z"></path><path class="cls-1" d="m86.08,197c-5.13,9.8-10.27,19.59-15.4,29.39-1.92.07-2.48-1.6-3.27-2.77-14.95-22.29-33.38-41.32-54.32-58-1.42-1.13-2.88-2.25-4.11-3.62-.81-1.55-3.46-1.74-3.08-4.17,1.89-.78,3.76-.47,5.61.16,28.2,5.25,52.86,17.34,73.15,37.89.42.43.94.75,1.42,1.12Z"></path><path class="cls-1" d="m116.7,237.63c-1.48,3.9-3.01,7.78-4.44,11.7-4.8,13.19-8.76,26.63-11.94,40.31-3.22-5.59-3.95-12.1-6.67-17.87-.67-1.43-.61-3.34-2.46-4.06,4.06-14.39,8.64-28.66,14.94-42.22,3.62,3.62,4.49,5.29,6.4,7.82,1.23,1.62,3.26,4.26,4.16,4.33Z"></path><path class="cls-2" d="m90.44,270.17c-2.22,8.03-4.51,14.89-5.7,23.12-.25,1.7-.51,2.68-2.35,3.21-11.18,3.25-22.32,6.64-33.47,9.99-3.92.48-2.68-2.35-2.42-4.11,1.34-9.01,3.41-17.87,5.86-26.63,3.14-11.23,6.19-22.51,10.61-33.34,1.47-4.4,3.19-8.7,4.98-12.97,3.44-9.08,4.15-8.34,8-17.23.6-1.39,6.04-10.87,6.71-12.68,18.34-35.1,40.95-67.15,68.05-96.06C187.69,64.02,230.14,31.5,276.22,3.52c1.81-1.1,3.69-2.08,5.54-3.11.97-.77,1.67-.36,2.27.5.16.43-.34,1.9-.35,2.35-1.51,4.22-3.62,4.83-7.99,7.68-4.49,3.45-8.89,7-12.71,11.2-15.67,13.57-29.58,28.93-43.74,43.96-24.2,25.7-46.6,52.94-66.87,81.92-16,22.87-30.39,46.64-42.54,71.77-1.26,2.6-2.34,5.29-3.6,7.89-4.72,11.65-9.78,23.16-13.2,35.29-.6,2.14-.17-.06-2.59,7.19Z"></path><path class="cls-2" d="m282.72,14.75q4.75-4.23,8.33-7.44c2.63-2.66,3.43-3.77,5.11-5.01.85-.16,1.49-.65,1.49,1.5-17.26,22.39-34.62,44.69-50.98,67.76-36.37,51.31-69.49,104.53-95.68,161.85-6.19,13.54-12.25,27.16-16.96,41.29-1.9,5.7-4.82,8.66-10.79,9.74-8.28,1.5-16.14,4.93-24.53,6.13-.94-2.12-.15-4.12.43-6.14,4.38-15.41,9.38-30.6,16.2-45.14,3.91-11.06,9.04-21.59,14.4-31.99,18.12-35.14,40.03-67.81,64.84-98.54,14.52-17.98,29.82-35.29,45.71-52.09,9.4-9.94,18.98-19.69,28.6-29.41,4.45-4.35,9.32-8.23,13.83-12.52Z"></path></g><g><path d="m252.64,211.62c0-26.16,0-52.31-.03-78.47,0-1.24.4-1.54,1.57-1.52,4.41.08,8.82.15,13.23.09,7.4-.11,14.8-.45,22.19-.45,6.57,0,13.14.24,19.7.53,8.36.37,16.66,1.29,24.87,2.91,11.63,2.29,22.33,6.71,31.56,14.29,7.94,6.53,13.84,14.61,18,23.99,3.63,8.21,5.93,16.78,7.2,25.65,1.86,12.94,1.31,25.74-2.43,38.32-3.59,12.07-9.36,22.95-18.19,32.05-8.68,8.96-19.24,14.77-31.19,18.13-11.81,3.32-23.93,4.43-36.14,4.53-16.18.12-32.36.03-48.55.03-1.78,0-1.78,0-1.78-1.86,0-26.07,0-52.15,0-78.22h0Zm31.24-.49c0,17.1,0,34.21,0,51.31,0,.99.06,2,.23,2.97.28,1.57.97,2.08,2.58,2.08,5.66,0,11.31.03,16.97-.02,5.96-.04,11.87-.48,17.67-1.97,14.61-3.75,25.45-12.16,32.07-25.8,3.23-6.65,4.76-13.76,5.46-21.07,1-10.44.12-20.7-3.11-30.72-3.98-12.33-11.69-21.42-23.46-27-7.82-3.7-16.14-5.35-24.71-5.75-6.23-.29-12.47-.21-18.71-.29-.62,0-1.25,0-1.87.07-1.96.22-2.97,1.28-3.09,3.25-.04.58-.03,1.16-.03,1.74,0,17.06,0,34.12,0,51.18Z"></path><path d="m746.19,274.04c-.51.44-1.06.85-1.53,1.34-2.69,2.82-5.16,5.9-8.09,8.45-7.41,6.48-16.18,9.96-25.99,10.87-7.08.66-13.92-.25-20.57-2.74-9.94-3.73-16.8-10.55-20.3-20.55-3.9-11.15-3.31-22.04,2.7-32.37,3.47-5.96,8.6-10.18,14.95-12.88,7.12-3.03,14.59-4.7,22.28-5.54,10.43-1.15,20.89-1.68,31.38-1.55.7,0,1.45-.05,2.07-.31.46-.19,1.07-.74,1.09-1.17.26-4.07.24-8.11-1.52-11.95-3.09-6.74-8.51-10.56-15.49-12.37-5.9-1.53-11.88-1.71-17.94-.94-8.13,1.02-15.77,3.52-23.11,7.06-.82.4-1.67.75-2.52,1.06-.79.28-1.31-.07-1.45-.87-.1-.57-.13-1.15-.15-1.73-.13-3.97-.1-7.96-.4-11.92-.31-4.06.9-6.42,4.81-7.77,7.28-2.51,14.73-4.31,22.37-5.35,7.16-.98,14.33-1.29,21.52-.72,7.04.57,13.89,1.88,20.33,4.97,8.35,4.01,14,10.45,17.57,18.89,2.45,5.8,3.55,11.89,4.24,18.09,1.26,11.34.57,22.73.75,34.1.09,6.23.13,12.45.26,18.68.03,1.36.28,2.73.59,4.06.79,3.41,3.47,5.27,7.9,5.59,1,.07,1.99.13,2.98.26,1.38.17,2.21,1.01,2.24,2.39.05,2.7.1,5.4-.02,8.09-.12,2.9-1.85,4.38-5.22,4.42-6.36.07-12.73.04-19.09.02-1.7,0-3.41-.05-5.11-.2-6.12-.51-9.87-4.05-10.71-10.19-.25-1.84-.2-3.72-.3-5.58-.03-.48-.09-.95-.14-1.43-.13-.07-.26-.14-.39-.2Zm-30.53-.03c11.44-.07,20-5.06,25.49-15.09,3.19-5.84,3.93-12.28,3.91-18.8,0-3.24-.95-4.12-4.18-4.24-3.32-.13-6.65-.05-9.97,0-2.65.04-5.32,0-7.96.28-5.6.58-11.09,1.68-16.21,4.15-5.39,2.61-9.07,6.6-10.08,12.72-1.1,6.65,1.02,14.62,8.65,18.65,3.26,1.72,6.7,2.37,10.35,2.33Z"></path><path d="m473.2,241.54c-12.44,0-24.88.05-37.31-.03-3.13-.02-3.62,1.42-3.27,3.87.67,4.71,2.44,9.05,5.17,12.94,6.05,8.6,14.5,13.2,24.83,14.45,11.45,1.39,22.65.19,33.49-3.8,2.3-.84,4.52-1.88,6.77-2.84,1.41-.6,2.12-.17,2.18,1.37.04.99,0,1.99,0,2.99,0,4.27.02,8.54.03,12.81,0,.62.03,1.25.03,1.87-.03,2.28-.69,3.26-2.85,3.96-12.58,4.09-25.43,6.6-38.71,5.97-11.59-.54-22.88-2.63-33.14-8.45-9.32-5.29-16.18-12.88-20.7-22.58-3.56-7.64-5.37-15.75-6.24-24.08-.36-3.42-.83-6.87-.71-10.29.56-16.45,5.89-31.03,17.71-42.85,7.87-7.87,17.59-12.19,28.48-14.01,7.01-1.17,14.07-1.53,21.11-.51,12.14,1.77,22.76,6.65,31.03,15.93,6.08,6.82,9.93,14.83,11.59,23.76.98,5.24,1.33,10.6,1.81,15.92.27,3.01.23,6.05.29,9.08.08,3.9-.47,4.48-4.42,4.49-7.9.03-15.81.02-23.71.02-4.49,0-8.98,0-13.48,0Zm-13.48-18.46v-.03c3.49,0,6.99,0,10.48,0,4.74,0,9.49.03,14.23,0,2.82-.02,3.57-.81,3.15-3.57-.64-4.22-1.41-8.43-3.16-12.37-4.35-9.79-11.74-15.56-22.56-16.28-7.9-.53-14.64,2.4-20.2,8.01-5.54,5.59-7.87,12.66-9.25,20.14-.66,3.58-.14,4.1,3.48,4.1,7.95,0,15.89,0,23.84,0Z"></path><path d="m600.59,197.19c-1.55-.1-3.11-.28-4.66-.28-5.2,0-10.4.09-15.6.1-1.61,0-2.43-.89-2.43-2.5-.02-5.61-.02-11.21-.02-16.82,0-.21,0-.42.02-.62.1-1.87.48-2.25,2.34-2.26,6.07-.01,12.15-.02,18.22-.03.29,0,.58,0,.87,0,2.01-.08,2.76-.75,3.05-2.72.06-.45.06-.91.06-1.37,0-7.14,0-14.28,0-21.43,0-2.31.82-3.34,3.06-4.07,6.47-2.11,12.93-4.26,19.39-6.41,1.14-.38,2.26-.82,3.41-1.18,1.79-.56,2.46-.07,2.59,1.81.04.54.05,1.08.05,1.62,0,7.47,0,14.95-.04,22.42-.01,1.95-.25,3.89-.29,5.84-.02,1.03.18,2.06.23,3.09.06,1.52,1.05,2.06,2.34,2.25.69.11,1.41.13,2.11.13,6.78.02,13.56.02,20.35.04.62,0,1.25.07,1.86.18,1.2.21,1.84.99,1.85,2.16.03,5.85.02,11.71,0,17.56,0,.98-.53,1.66-1.45,1.96-.58.19-1.21.32-1.82.32-6.86,0-13.73-.03-20.59-.06-.08,0-.17,0-.25,0-4.29-.02-4.65.18-4.65,4.71,0,16.19.2,32.38.36,48.57.04,3.78.38,7.54,1.43,11.2,2.36,8.21,8.2,12.25,16.73,11.43,2.76-.27,5.51-.77,8.25-1.21,2.29-.36,2.97.17,3,2.51.02,2.28-.03,4.57,0,6.85.04,2.78.16,5.56.21,8.33.04,2.24-.19,2.7-2.35,3.08-4.21.73-8.44,1.53-12.69,1.83-7.02.5-14.03.26-20.93-1.54-10.47-2.73-17.18-9.3-20.46-19.5-2.04-6.34-2.84-12.88-2.92-19.5-.18-15.28-.26-30.56-.36-45.83-.02-2.82.09-5.63.1-8.45,0-.61-.2-1.22-.37-2.24Z"></path><path d="m563.7,207.21c0,24.2,0,48.41,0,72.61,0,1.37.19,2.73.19,4.1,0,1.57,0,3.15-.16,4.71-.24,2.28-1.29,3.2-3.61,3.26-1.24.03-2.49-.18-3.73-.18-5.65.03-11.3.09-16.95.14-.04,0-.08,0-.12.01-3.91.32-5.03-.65-5.04-4.52-.03-33.21-.04-66.43-.04-99.64,0-13.87.07-27.73.07-41.6,0-1.57-.11-3.16-.34-4.71-.61-4.04-3.22-6.37-7.33-6.69-1.29-.1-2.57-.16-3.86-.28-1.5-.14-2.22-.66-2.23-2.16-.03-3.35.07-6.7.3-10.04.1-1.45,1.28-2.33,2.63-2.7,1.11-.31,2.29-.48,3.44-.49,6.9-.05,13.81-.12,20.71.02,2.6.05,5.23.44,7.76,1.02,4.83,1.11,7.69,4.61,8.07,9.67.21,2.85.28,5.72.29,8.58.02,22.96.01,45.92.01,68.88-.02,0-.04,0-.06,0Z"></path></g></g></g></svg> 